
            <svg data-logo="logo" xmlns="http://www.w3.org/2000/svg" viewBox="0 0 254 42">
                <g id="logogram" transform="translate(0, 1)"><path d="M59.999 35.286C59.985 34.96 59.868 34.647 59.664 34.392C59.461 34.138 59.181 33.955 58.866 33.87C54.261 32.592 51.49 30.807 49.976 29.535C49.456 29.099 48.991 28.646 48.592 28.189L48.082 27.605L48.509 26.96L55.293 16.686C55.478 16.41 55.567 16.081 55.546 15.75C55.525 15.419 55.396 15.104 55.178 14.854C54.961 14.6 54.668 14.422 54.342 14.347C54.016 14.273 53.675 14.305 53.368 14.439C49.655 16.041 45.106 16.888 40.212 16.889C39.361 16.889 38.491 16.862 37.626 16.811L36.813 16.762L36.668 15.97C35.903 11.784 33.943 8.599 30.844 6.506C27.683 4.371 23.249 3.28799 17.666 3.28799C14.463 3.28799 11.536 4.034 9.646 4.66L8.38699 5.076L8.28201 3.77C8.11201 1.656 6.29701 0 4.14801 0C1.86101 0 0 1.83799 0 4.09799C0 5.46999 0.697021 6.74799 1.86502 7.51599L2.23502 7.759L2.31201 8.19099L7.746 38.638C7.878 39.374 8.52202 39.908 9.27802 39.908H11.352C11.812 39.908 12.247 39.708 12.542 39.358C12.839 39.01 12.963 38.553 12.883 38.104L11.442 30.027L11.31 29.292L11.978 28.943C12.778 28.525 17.045 26.44 22.478 26.44C23.258 26.44 24.04 26.484 24.8 26.57L25.569 26.658L25.703 27.41L26.991 34.626C27.101 35.169 27.339 35.679 27.685 36.112C28.031 36.545 28.475 36.89 28.981 37.117C29.675 37.417 35.901 40.002 43.679 40.002C49.453 40.002 54.449 38.459 58.987 36.791C59.294 36.68 59.557 36.475 59.739 36.204C59.92 35.934 60.011 35.613 59.998 35.288L59.999 35.286Z" fill="#283841"/><path d="M11.014 13.774C12.846 13.196 15.368 12.597 18.156 12.499C24.993 12.3 32.734 13.663 36.033 21.321L36.311 22.871C31.12 17.824 24.268 17.037 18.779 17.397H18.773C15.86 17.607 13.315 18.269 11.502 18.879C10.707 19.145 10.048 19.403 9.55801 19.609L8.67001 14.633C9.43801 14.311 10.22 14.025 11.014 13.774ZM36.977 26.565C37.357 28.667 37.665 30.373 37.825 31.307C25.523 19.424 11.005 27.716 11.005 27.716L9.89301 21.487C10.617 21.169 11.355 20.885 12.105 20.634C13.812 20.061 16.195 19.442 18.906 19.246C24.931 18.852 32.193 19.926 36.959 26.464L36.977 26.565ZM29.626 35.716L39.785 33.674L39.552 32.319C43.183 32.743 46.823 32.592 50.42 31.8C52.261 33.051 54.851 34.351 58.445 35.348C53.608 37.126 48.955 38.463 43.679 38.463C35.849 38.463 29.627 35.717 29.627 35.717L29.626 35.716ZM38.299 25.269C40.819 25.395 44.236 25.487 48.244 24.547L46.26 27.551C46.26 27.551 46.81 28.771 48.546 30.337C45.463 30.856 42.347 30.887 39.229 30.471C38.923 28.736 38.611 27.002 38.299 25.269ZM37.055 18.313C42.684 18.707 48.791 18.089 53.99 15.845L49.742 22.279C44.937 23.781 40.903 23.609 37.973 23.457C37.665 21.744 37.357 20.028 37.055 18.313ZM11.352 38.369H9.27802L3.608 6.60298C2.435 6.35798 1.55499 5.32898 1.55499 4.09698C1.55499 2.68298 2.716 1.53699 4.147 1.53699C5.58 1.53699 6.74002 2.68298 6.74002 4.09798C6.74002 4.51598 6.637 4.92697 6.44 5.29597C6.243 5.66397 5.959 5.97898 5.612 6.21098L11.352 38.369ZM8.33502 12.762C8.33602 12.762 8.33601 12.762 8.33701 12.761L8.33502 12.762ZM7.349 7.22899C7.349 7.22899 12.079 4.82399 17.666 4.82399C24.925 4.82399 33.447 6.50498 35.167 16.413L35.17 16.43C30.737 11.347 23.777 10.48 18.097 10.647H18.092C15.081 10.752 12.382 11.395 10.442 12.009C9.58302 12.28 8.86901 12.546 8.33701 12.761L7.349 7.22899Z" fill="#ffffff"/></g>
                <g id="logotype" transform="translate(66, 0)"><path fill="#29a877" d="M14.37 35L6.14 35L12.79 10.92L24.13 10.92L31.10 35L22.52 35L21.61 30.38L15.38 30.38L14.37 35ZM18.50 15.54L16.12 26.07L20.77 26.07L18.50 15.54ZM43.00 30.38L43.00 30.38Q44.01 30.38 45.15 30.17Q46.29 29.96 47.48 29.40L47.48 29.40L48.32 33.91Q47.02 34.58 45.50 34.93Q43.98 35.28 42.02 35.28L42.02 35.28Q38.48 35.28 36.08 34.13Q33.69 32.97 32.46 30.94Q31.24 28.91 31.24 26.25L31.24 26.25Q31.24 23.52 32.55 21.49Q33.86 19.46 36.07 18.34Q38.27 17.22 40.93 17.22L40.93 17.22Q44.89 17.22 46.98 19.69Q49.09 22.16 49.09 26.70L49.09 26.70L38.66 28.04Q39.81 30.38 43.00 30.38ZM38.10 24.81L38.10 24.81L43.59 23.66Q43.45 22.54 42.82 22.00Q42.19 21.45 41.25 21.45L41.25 21.45Q39.85 21.45 39.02 22.42Q38.20 23.38 38.10 24.81ZM58.50 35.28L58.50 35.28Q56.02 35.28 54.46 34.44Q52.90 33.60 52.20 32.16Q51.50 30.73 51.50 28.95L51.50 28.95L51.50 21.80L49.26 21.80L49.26 17.46L52.03 17.46L55.28 11.93L58.89 11.93L58.89 17.46L62.95 17.46L62.95 21.80L58.89 21.80L58.89 27.93Q58.89 28.73 59.41 29.17Q59.94 29.61 60.78 29.61L60.78 29.61Q61.62 29.61 62.46 29.19L62.46 29.19L62.98 34.05Q62.14 34.65 60.85 34.97Q59.55 35.28 58.50 35.28ZM72.36 35L64.98 35L64.98 11.93L72.36 10.85L72.36 21.07Q73.10 19.25 74.67 18.23Q76.25 17.22 78.45 17.22L78.45 17.22Q81.88 17.22 83.77 19.58Q85.66 21.95 85.66 26.25L85.66 26.25L85.66 35L78.28 35L78.28 25.86Q78.28 22.75 75.76 22.75L75.76 22.75Q74.25 22.75 73.31 23.85Q72.36 24.95 72.36 26.81L72.36 26.81L72.36 35ZM99.35 30.38L99.35 30.38Q100.36 30.38 101.50 30.17Q102.64 29.96 103.83 29.40L103.83 29.40L104.67 33.91Q103.37 34.58 101.85 34.93Q100.33 35.28 98.37 35.28L98.37 35.28Q94.83 35.28 92.43 34.13Q90.04 32.97 88.81 30.94Q87.59 28.91 87.59 26.25L87.59 26.25Q87.59 23.52 88.90 21.49Q90.21 19.46 92.42 18.34Q94.62 17.22 97.28 17.22L97.28 17.22Q101.24 17.22 103.34 19.69Q105.44 22.16 105.44 26.70L105.44 26.70L95.01 28.04Q96.16 30.38 99.35 30.38ZM94.45 24.81L94.45 24.81L99.94 23.66Q99.80 22.54 99.17 22.00Q98.54 21.45 97.60 21.45L97.60 21.45Q96.20 21.45 95.37 22.42Q94.55 23.38 94.45 24.81ZM114.75 35L107.36 35L107.36 17.46L114.64 17.46L114.64 21.84Q115.34 19.46 116.83 18.34Q118.31 17.22 120.38 17.22L120.38 17.22L121.25 23.41Q120.42 23.31 119.61 23.31L119.61 23.31Q114.75 23.31 114.75 27.30L114.75 27.30L114.75 35ZM132.81 35L124.65 35L124.65 16.45L119.22 16.45L119.22 10.92L138.23 10.92L138.23 16.45L132.81 16.45L132.81 35ZM145.44 35L138.05 35L138.05 17.46L145.33 17.46L145.33 21.84Q146.03 19.46 147.52 18.34Q149.01 17.22 151.07 17.22L151.07 17.22L151.95 23.41Q151.11 23.31 150.30 23.31L150.30 23.31Q145.44 23.31 145.44 27.30L145.44 27.30L145.44 35ZM159.65 35.28L159.65 35.28Q157.30 35.28 155.85 34.44Q154.40 33.60 153.73 32.16Q153.07 30.73 153.07 28.95L153.07 28.95L153.07 17.46L160.45 17.46L160.45 27.93Q160.45 28.73 160.93 29.17Q161.40 29.61 162.06 29.61L162.06 29.61Q162.76 29.61 163.50 29.19L163.50 29.19L163.88 34.05Q163.11 34.65 161.89 34.97Q160.66 35.28 159.65 35.28ZM156.78 15.54L156.78 15.54Q155.17 15.54 154.01 14.51Q152.86 13.47 152.86 11.97L152.86 11.97Q152.86 10.92 153.42 10.13Q153.98 9.34 154.89 8.89Q155.80 8.43 156.78 8.43L156.78 8.43Q157.86 8.43 158.76 8.92Q159.65 9.41 160.19 10.22Q160.73 11.02 160.73 11.97L160.73 11.97Q160.73 13.02 160.16 13.82Q159.58 14.63 158.69 15.08Q157.79 15.54 156.78 15.54ZM172.53 31.75L172.53 40.53L165.14 41.62L165.14 17.46L172.42 17.46L172.42 21.28Q173.33 19.11 174.93 18.16Q176.52 17.22 178.23 17.22L178.23 17.22Q180.68 17.22 182.63 18.36Q184.57 19.49 185.71 21.49Q186.84 23.48 186.84 26.14L186.84 26.14Q186.84 28.80 185.71 30.87Q184.57 32.94 182.63 34.11Q180.68 35.28 178.23 35.28L178.23 35.28Q176.13 35.28 174.73 34.37Q173.33 33.46 172.53 31.75L172.53 31.75ZM175.96 29.75L175.96 29.75Q177.46 29.75 178.48 28.73Q179.49 27.72 179.49 26.25L179.49 26.25Q179.49 24.78 178.48 23.77Q177.46 22.75 175.96 22.75L175.96 22.75Q174.52 22.75 173.51 23.71Q172.49 24.67 172.49 26.18L172.49 26.18Q172.49 27.68 173.51 28.72Q174.52 29.75 175.96 29.75Z"/></g>
                
            </svg>
        